<svg width="20" height="20" viewBox="0 0 102 148" fill="none" xmlns="http://www.w3.org/2000/svg">
<path d="M52.7212 1.80092C52.7212 1.80092 52.9365 2.7999 53.5421 4.5482C54.1103 6.29649 55.0897 8.79381 56.404 11.7908C57.1245 13.2894 57.8192 14.9127 58.7107 16.6295C59.6248 18.3467 60.4629 20.1573 61.5643 22.0303C62.6425 23.9033 63.662 25.8389 64.886 27.8057L68.485 33.7684C69.6609 35.7664 70.9912 37.7644 72.2182 39.7311C73.4603 41.6979 74.6805 43.6336 75.9458 45.5066C77.2001 47.3795 78.3632 49.1905 79.5543 50.9073L82.9099 55.7461L88.2144 62.9886L90.3525 65.7359C107.485 87.7495 103.528 119.484 81.5143 136.616C59.5007 153.748 27.7665 149.791 10.6342 127.778C-3.86045 109.153 -3.22544 83.5466 10.6342 65.7359L12.7723 62.9886L18.0768 55.7461L21.4324 50.9073C22.6235 49.1902 23.7869 47.3795 25.0409 45.5066C26.3062 43.6336 27.5264 41.6979 28.7685 39.7311C29.9952 37.7644 31.3255 35.7664 32.5017 33.7684L36.1007 27.8057C37.3247 25.8389 38.3442 23.9033 39.4224 22.0303C40.5235 20.1573 41.3619 18.3464 42.276 16.6295C43.1675 14.9124 43.8625 13.2891 44.5827 11.7908C45.897 8.79381 46.8764 6.2962 47.4446 4.5482C48.0502 2.7999 48.2655 1.80092 48.2655 1.80092C48.3747 1.29115 48.6555 0.834275 49.061 0.506532C49.4664 0.178789 49.972 0 50.4934 0C51.0147 0 51.5203 0.178789 51.9257 0.506532C52.3312 0.834275 52.612 1.29115 52.7212 1.80092V1.80092Z" fill="#00B1FF"/>
<path d="M29.4897 75.5802L29.1964 76.9037C29.0925 77.3306 28.9785 77.849 28.9708 78.3358C28.9435 78.8672 28.8624 79.3497 28.8701 80.0432C28.871 80.7087 28.8209 81.3925 28.8921 82.1522C28.9265 82.897 28.9853 83.6736 29.1106 84.4841C29.3065 86.0858 29.6972 87.7836 30.1719 89.4262C31.1311 92.7236 32.5959 95.8203 33.857 97.7874C34.3107 98.5262 34.8283 99.2239 35.4038 99.8723L35.9625 100.37C40.0534 104.015 40.4153 110.286 36.7709 114.376C33.1264 118.467 26.8555 118.829 22.7649 115.185C21.3174 113.899 20.2797 112.217 19.7807 110.346L19.3013 108.558L18.7871 106.646C18.546 105.499 18.2667 103.912 18.1384 102.135C17.8392 98.5616 18.0057 94.0417 18.8292 89.6563C19.246 87.4641 19.7861 85.3151 20.4903 83.3539C20.8135 82.3742 21.1971 81.4432 21.5857 80.5763C21.9342 79.7077 22.3929 78.9118 22.7643 78.1871C23.1122 77.4788 23.6036 76.7618 23.9533 76.1873C24.3217 75.5648 24.6504 75.1646 24.9223 74.8401L25.7743 73.7865C26.1277 73.3496 26.6401 73.0709 27.1989 73.0118C27.7577 72.9526 28.3171 73.1179 28.7541 73.4712C29.3995 73.9931 29.6566 74.8211 29.4897 75.5802V75.5802Z" fill="#76DFFF"/>
</svg>
