<svg width="100" height="60" viewBox="0 0 126 126" fill="none" xmlns="http://www.w3.org/2000/svg">
<path d="M125.99 79.89L107.1 63.13L107.16 62.83L126 46.14L101.17 41.05L101.1 40.93L109.1 16.88L85.08 24.9L84.96 24.82L79.86 0L63.01 19.03H62.99L46.11 0.00999999L41.03 24.89L40.97 24.92L16.9 16.88L24.9 40.93C24.86 40.97 24.83 41.02 24.79 41.06L0.00999999 46.11L19.01 62.98L19 63.03L0 79.86L24.89 84.97L24.91 85.01L16.89 109.12L40.94 101.09L41.04 101.17L46.14 126L62.98 106.99H63.03L79.9 125.99L84.97 101.13L85.04 101.09L109.13 109.11L101.11 85.08L101.18 84.96L125.99 79.89V79.89Z" fill="#FFB300"/>
<path d="M125.99 79.89L107.1 63.13L107.16 62.83L126 46.14L101.17 41.05L101.1 40.93L109.1 16.88L85.08 24.9L84.96 24.82L79.86 0L63.01 19.03H62.99L46.11 0.00999999L41.03 24.89L40.97 24.92L16.9 16.88L24.9 40.93C24.86 40.97 24.83 41.02 24.79 41.06L0.00999999 46.11L19.01 62.98L19 63.03L0 79.86L24.89 84.97L24.91 85.01L16.89 109.12L40.94 101.09L41.04 101.17L46.14 126L62.98 106.99H63.03L79.9 125.99L84.97 101.13L85.04 101.09L109.13 109.11L101.11 85.08L101.18 84.96L125.99 79.89V79.89Z" fill="url(#paint0_radial_18:29)"/>
<path d="M63 105.46C86.4501 105.46 105.46 86.45 105.46 63C105.46 39.55 86.4501 20.54 63 20.54C39.55 20.54 20.54 39.55 20.54 63C20.54 86.45 39.55 105.46 63 105.46Z" fill="#FFB300"/>
<path d="M63 105.46C86.4501 105.46 105.46 86.45 105.46 63C105.46 39.55 86.4501 20.54 63 20.54C39.55 20.54 20.54 39.55 20.54 63C20.54 86.45 39.55 105.46 63 105.46Z" fill="url(#paint1_radial_18:29)"/>
<path d="M45.8 59.46C48.6995 59.46 51.05 56.6976 51.05 53.29C51.05 49.8824 48.6995 47.12 45.8 47.12C42.9005 47.12 40.55 49.8824 40.55 53.29C40.55 56.6976 42.9005 59.46 45.8 59.46Z" fill="#5D4037"/>
<path d="M80.2 59.46C83.0995 59.46 85.45 56.6976 85.45 53.29C85.45 49.8824 83.0995 47.12 80.2 47.12C77.3005 47.12 74.95 49.8824 74.95 53.29C74.95 56.6976 77.3005 59.46 80.2 59.46Z" fill="#5D4037"/>
<path d="M74.81 74.67C73.11 75.78 69.5 78.39 62.99 78.39C56.48 78.39 52.59 75.85 51 74.54C50.27 73.93 49.34 73.44 48.66 73.95C47.98 74.46 47.85 75.5 48.33 76.24C50.17 79.09 55.04 83.37 62.98 83.51C70.92 83.37 75.79 79.09 77.63 76.24C78.03 75.62 78.07 74.73 77.6 74.25C76.99 73.61 75.85 73.99 74.81 74.67V74.67Z" fill="#5D4037"/>
<path d="M57.89 68.52C56.5 67.1 57.78 66.35 59.31 66.78C61.24 67.32 64.32 67.06 65.12 65.48C66.64 62.44 64.74 60.72 62.38 55.46C59.92 49.96 63.01 43.97 66.58 43.66C69.44 43.42 68.49 44.78 67.59 45.36C65.84 46.5 63.99 50.29 66.82 54.53C71.64 61.74 71.64 65.15 69.15 68.59C67.54 70.81 61.8 72.53 57.89 68.52V68.52Z" fill="#DE7321"/>
<path opacity="0.65" d="M49.38 70.89C47.75 74.82 42.33 76.31 37.26 74.22C32.2 72.13 29.41 67.24 31.04 63.31C32.67 59.38 38.09 57.89 43.16 59.98C48.22 62.07 51.01 66.96 49.38 70.89Z" fill="url(#paint2_radial_18:29)"/>
<path opacity="0.65" d="M76.62 70.89C78.25 74.82 83.67 76.31 88.74 74.22C93.8 72.13 96.59 67.24 94.96 63.31C93.33 59.38 87.91 57.89 82.84 59.98C77.78 62.07 74.99 66.96 76.62 70.89Z" fill="url(#paint3_radial_18:29)"/>
<defs>
<radialGradient id="paint0_radial_18:29" cx="0" cy="0" r="1" gradientUnits="userSpaceOnUse" gradientTransform="translate(63 63) scale(75.481)">
<stop offset="0.556" stop-color="#FFB604"/>
<stop offset="0.691" stop-color="#FEC61B"/>
<stop offset="0.822" stop-color="#FDD835"/>
</radialGradient>
<radialGradient id="paint1_radial_18:29" cx="0" cy="0" r="1" gradientUnits="userSpaceOnUse" gradientTransform="translate(65.147 99.921) scale(66.57 72.4015)">
<stop offset="0.694" stop-color="#FFB604"/>
<stop offset="0.849" stop-color="#FEC61B"/>
<stop offset="1" stop-color="#FDD835"/>
</radialGradient>
<radialGradient id="paint2_radial_18:29" cx="0" cy="0" r="1" gradientUnits="userSpaceOnUse" gradientTransform="translate(41.8812 61.2028) rotate(-156.799) scale(12.5788 12.4087)">
<stop stop-color="#EF6C00"/>
<stop offset="1" stop-color="#EF6C00" stop-opacity="0"/>
</radialGradient>
<radialGradient id="paint3_radial_18:29" cx="0" cy="0" r="1" gradientUnits="userSpaceOnUse" gradientTransform="translate(84.1095 61.2668) rotate(-23.2014) scale(12.5788 12.4087)">
<stop stop-color="#EF6C00"/>
<stop offset="1" stop-color="#EF6C00" stop-opacity="0"/>
</radialGradient>
</defs>
</svg>
