<svg width="185" height="175" viewBox="0 0 155 135" fill="none" xmlns="http://www.w3.org/2000/svg">
<path d="M153.025 65.0795C143.312 62.6342 133.592 60.1931 123.88 57.7436C122.666 53.5876 120.768 49.604 118.244 45.9149C123.087 38.2297 127.949 30.5445 132.799 22.8593C134.135 20.755 131.484 18.4549 129.049 19.6123C120.192 23.8147 111.348 28.0193 102.504 32.2238C98.1986 29.9773 93.5317 28.2965 88.6557 27.2365C85.7684 18.7348 82.8933 10.2099 79.9987 1.69981C79.2374 -0.562394 75.4841 -0.570811 74.713 1.69981C71.8476 10.2183 68.9822 18.7411 66.112 27.2617C61.3289 28.3176 56.7463 29.9632 52.5049 32.1481L25.6752 19.4587C23.2501 18.3139 20.5842 20.6077 21.9244 22.712C26.8379 30.4372 31.7271 38.1645 36.6406 45.8813C34.0917 49.5876 32.1816 53.5959 30.9706 57.7794L1.96389 65.1321C-0.646109 65.795 -0.663136 69.0505 1.96389 69.7091L30.9779 77.0113C32.2254 81.2685 34.1891 85.344 36.806 89.1073C31.9777 96.7462 27.1517 104.381 22.3331 112.02C20.9977 114.122 23.6466 116.424 26.0839 115.269C34.8966 111.079 43.719 106.889 52.5341 102.704C56.8182 104.912 61.4511 106.57 66.2871 107.624C69.1185 115.997 71.9571 124.354 74.7836 132.714C75.5595 134.979 79.3201 134.983 80.0765 132.714C82.8836 124.364 85.7028 116.012 88.5049 107.662C93.396 106.603 98.0813 104.93 102.411 102.695C111.175 106.837 119.937 110.982 128.701 115.126C129.236 115.517 129.876 115.635 130.501 115.57C131.167 115.536 131.761 115.269 132.218 114.886C132.727 114.482 133.069 113.931 133.111 113.31C133.154 113.031 133.129 112.747 133.037 112.477C132.944 112.208 132.787 111.958 132.576 111.744C127.781 104.181 122.972 96.6136 118.168 89.0379C120.732 85.3031 122.654 81.2652 123.872 77.0513L153.028 69.6565C155.647 68.9936 155.664 65.7382 153.037 65.0732" fill="#FBB041"/>
<path d="M76.9728 29.4187C101.107 29.4187 120.657 46.3379 120.657 67.2113C120.657 88.0804 101.1 105 76.9728 105C52.8528 105 33.2912 88.0804 33.2912 67.2113C33.2912 46.3421 52.8479 29.4187 76.9728 29.4187" fill="#F9EC21"/>
<path d="M92.0271 75.1427H89.7746C89.6482 75.1427 89.5752 75.1785 89.4755 75.1911C89.349 75.2058 89.2395 75.21 89.1325 75.2479C88.9489 75.3103 88.7818 75.4041 88.6411 75.5236C88.6071 75.5257 88.5755 75.553 88.5487 75.5762C83.1049 80.1679 75.9706 81.2138 69.1793 78.1898C65.5306 76.5674 65.8322 75.1406 61.9306 75.1406C60.3349 75.1406 59.739 76.742 60.7047 77.7016C69.5052 86.4895 84.4476 86.4895 93.253 77.7016C94.2114 76.7441 93.6203 75.1427 92.0271 75.1427" fill="#D88B25"/>
<path d="M73.4336 60.1628C71.7649 56.2213 67.9849 52.4481 62.7528 52.5344C57.8879 52.6165 54.9447 57.0778 53.3514 60.4553C52.359 62.5597 56.3068 63.473 57.2871 61.3959C58.3087 59.2284 59.8144 56.8294 62.5679 56.1034C65.7276 55.268 68.6174 59.018 69.493 61.1013C70.3979 63.2268 74.3409 62.305 73.4336 60.1628" fill="#D88B25"/>
<path d="M80.5144 60.1237C82.183 56.1864 85.9679 52.4133 91.1952 52.4996C96.0844 52.5795 99.0082 57.0408 100.599 60.4183C101.582 62.5227 97.6484 63.4339 96.6657 61.3569C95.6465 59.1852 94.1384 56.7946 91.3776 56.0623C88.2276 55.2289 85.3355 58.9853 84.4501 61.0644C83.5574 63.1898 79.6144 62.2681 80.5144 60.1237Z" fill="#D88B25"/>
</svg>
